<?xml version="1.0" encoding="UTF-8"?>
<svg version="1.1" viewBox="0 0 876 873" xmlns="http://www.w3.org/2000/svg">
 <path d="m0 436.5v-436.5h876v873h-876v-436.5z" fill="#fefefe"/>
 <path d="m260.48 870.64c-5.4182-2.5231-10.704-7.2426-12.928-11.543-4.152-8.0292-6.2196-23.958-4.2315-32.6 1.5891-6.9072 41.61-107.94 45.189-114.08 1.3091-2.2459 5.2927-6.8081 8.8525-10.138 15.009-14.041 32.245-16.237 43.14-5.4976 7.9418 7.8291 12.533 24.106 10.45 37.044-1.2106 7.517-42.891 112.75-47.068 118.84-4.1614 6.0634-12.396 12.921-20.267 16.878-8.6042 4.3257-15.51 4.655-23.137 1.1034zm346.02-2.3837c-8.8277-3.1741-19.139-11.08-24.466-18.759-1.5262-2.2-13.281-28.525-26.122-58.5l-23.347-54.5-0.39396-10.203c-0.68682-17.788 4.699-29.9 15.836-35.616 4.7757-2.451 6.4073-2.7764 12.493-2.4916 11.198 0.5239 24.164 8.1029 31.827 18.602 5.1203 7.0162 49.458 111.18 50.757 119.25 1.9577 12.156-1.533 26.779-8.2007 34.354-7.5681 8.5978-18.171 11.535-28.383 7.8634zm-181.5-180.85c-21.873-1.8604-38.967-4.9392-56-10.086-91.045-27.511-162.47-106.65-179.43-198.82-3.5991-19.552-4.6308-46.566-2.5317-66.289 11.707-110.01 100.28-204.04 210.35-223.31 51.971-9.0988 104.67-0.47054 153.38 25.111 76.218 40.032 128.82 116.44 137.29 199.44 2.658 26.048-5e-3 57.714-7.0935 84.341-25.988 97.624-113.28 174.56-212.97 187.71-11.137 1.4688-35.443 2.5446-42.99 1.9027zm-396.45-48.01c-7.3782-1.7843-13.148-5.1001-17.763-10.208-4.5724-5.0611-6.1036-9.874-5.6096-17.633 0.69299-10.883 9.1761-24.676 19.635-31.923 2.1831-1.5129 28.206-13.092 57.829-25.73 58.168-24.818 60.115-25.45 73.401-23.827 13.558 1.6567 23.697 7.6242 27.977 16.467 3.2745 6.7642 2.5749 16.779-1.7918 25.649-3.9589 8.0416-12.94 17.622-19.732 21.048-9.8523 4.9701-106.43 45.739-110.67 46.716-6.0315 1.391-16.227 1.1462-23.277-0.55878zm800.95-6.4283c-4.0458-0.82404-105.63-41.48-112.98-45.218-6.0816-3.0917-15.84-13.46-19.508-20.726-10.266-20.337-0.0453-38.002 24.367-42.113 13.524-2.2775 14.95-1.8531 74.567 22.18 34.022 13.715 56.539 23.346 59.826 25.588 6.158 4.2007 11.663 10.516 16.189 18.572 5.7833 10.294 5.0499 22.431-1.862 30.817-7.1397 8.6617-26.314 13.81-40.598 10.901zm-694.5-285.36c-5.1588-1.4471-105.45-41.799-111.5-44.863-6.3743-3.2266-15.523-13.318-19.889-21.939-3.6518-7.2104-3.859-8.0938-3.4008-14.497 0.5395-7.5402 2.2324-11.592 6.7167-16.076 4.9187-4.9187 11.217-7.9924 20.039-9.7801 14.787-2.9963 14.915-2.9601 74.96 21.214 29.465 11.863 55.365 22.479 57.554 23.592 6.3624 3.2342 15.744 13.38 19.557 21.15 7.8331 15.962 3.6366 30.111-11.171 37.666-8.6815 4.429-23.859 6.0611-32.866 3.5345zm584.5-4.646c-13.159-1.7299-23.319-7.8204-27.519-16.497-3.3024-6.8219-2.5785-16.771 1.8791-25.826 4.0104-8.1462 12.684-17.36 19.651-20.874 11.58-5.8418 106.93-45.875 111.7-46.898 6.9397-1.4883 18.895-0.56175 26.254 2.0348 6.9701 2.4591 11.851 6.1228 16.033 12.035 2.7436 3.8784 3 4.9406 3 12.426 0 7.2719-0.37561 8.9479-3.3674 15.025-3.6734 7.4618-13.321 18.134-19.068 21.092-5.7758 2.9734-106.36 45.708-109.56 46.55-5.2357 1.3754-12.806 1.747-19 0.93273zm-415.78-160.38c-7.4226-3.0523-15.998-9.687-20.754-16.058-2.5122-3.3649-11.403-22.905-26.981-59.301-26.249-61.326-26.587-62.42-23.688-76.556 1.912-9.3224 4.5365-15.091 8.8923-19.547 10.54-10.781 25.584-10.075 41.508 1.9479 9.5048 7.1762 11.529 11.017 36.34 68.937l23.345 54.5 0.41947 10.203c0.512 12.454-1.7853 21.366-7.4044 28.725-7.1175 9.3215-19.563 12.13-31.677 7.149zm237.76-1.385c-12.248-5.7552-20.062-24.19-17.565-41.44 1.1096-7.6666 42.59-112.71 47.09-119.26 6.7361-9.7906 20.882-19.219 30.279-20.182 12.759-1.3071 24.541 6.6617 28.263 19.115 2.591 8.6691 3.5574 18.207 2.5062 24.735-0.99489 6.1777-41.123 108.64-45.593 116.42-3.3964 5.9085-14.361 15.751-21.125 18.962-7.74 3.6752-18.026 4.3849-23.855 1.6458z" fill="#cfcfcf"/>
 <path d="m263.99 872.13c-8.6479-2.8375-15.685-9.9706-18.599-18.853-1.4328-4.3671-1.8941-8.6951-1.8941-17.773v-12l21.738-54.302c11.956-29.866 23.075-56.245 24.709-58.62 7.069-10.274 21.032-19.389 31.202-20.366 7.7738-0.74697 13.603 1.4301 19.448 7.2639 7.7078 7.6929 9.8317 13.937 9.8718 29.024l0.0319 12-21.875 54.809c-17.414 43.633-22.75 55.998-26.167 60.64-4.0977 5.5663-12.997 12.784-20.413 16.556-3.8502 1.9583-14.192 2.8862-18.052 1.6196zm343.03-3.7267c-10.502-3.8174-22.97-14.386-27.433-23.252-1.2865-2.5559-12.408-28.047-24.715-56.647l-22.376-52v-12.5c0-11.477 0.21991-12.969 2.688-18.235 3.9941-8.5223 7.398-12.415 13.442-15.372 7.4627-3.6512 16.044-3.1148 25.334 1.5834 7.7315 3.91 17.757 13.234 21.275 19.786 1.399 2.6057 12.511 28.033 24.693 56.505 24.02 56.139 24.457 57.507 22.94 71.713-1.322 12.372-7.4966 22.683-16.299 27.218-5.3063 2.7336-13.882 3.2602-19.549 1.2004zm-199.52-182.93c-82.658-10.818-157.73-65.335-196.02-142.36-16.133-32.449-23.953-63.241-25.169-99.108-1.367-40.301 6.7428-77.105 25.121-114 43.786-87.906 132.11-144.27 226.07-144.27 77.961 0 152.75 38.755 201.84 104.59 23.971 32.148 40.081 69.619 46.76 108.76 3.0802 18.051 3.3632 54.472 0.55479 71.412-4.6634 28.129-11.511 49.375-23.816 73.902-38.5 76.735-113.88 130.81-196.8 141.17-14.042 1.7541-44.765 1.7007-58.538-0.10187zm-376.26-45.46c-17.138-3.646-27.251-14.872-25.985-28.842 0.99293-10.95 9.509-24.385 19.898-31.391 2.943-1.9846 29.426-13.883 58.851-26.441l53.5-22.833h12c9.3311 0 13.139 0.42298 17.123 1.9018 8.1774 3.0358 13.795 7.7088 16.903 14.061 2.3907 4.8864 2.6777 6.4528 2.2578 12.322-0.33175 4.6367-1.3817 8.5746-3.3822 12.685-3.3783 6.9417-12.949 17.615-18.818 20.987-2.2459 1.2902-28.061 12.545-57.367 25.012l-53.284 22.666-8.716 0.38979c-4.7938 0.21438-10.635-0.0184-12.98-0.51741zm799.26-7.0628c-2.75-0.50115-29.476-10.812-59.391-22.914-58.687-23.74-61.309-25.082-69.056-35.344-18.291-24.226-7.7314-46.69 23.61-50.225 3.2106-0.36215 8.413-0.18143 11.561 0.4016 3.1479 0.58303 30.598 11.068 61 23.3l55.276 22.239 8.0826 8.0494c10.501 10.458 13.931 17.139 13.885 27.049-0.0615 13.465-8.094 22.858-22.468 26.274-6.9581 1.6536-16.984 2.1748-22.5 1.1696zm-693.14-284.92c-2.2775-0.48551-28.787-10.811-58.911-22.945-58.269-23.472-59.884-24.286-68.229-34.394-14.191-17.189-13.364-33.921 2.2044-44.633 7.4822-5.1479 21.531-7.8421 31.871-6.1121 8.0081 1.3398 111.61 43.134 118.56 47.827 10.832 7.3178 18.988 20.35 19.907 31.809 0.44218 5.5086 0.14511 7.1008-2.2307 11.957-3.3665 6.8809-9.4351 11.64-18.479 14.492-7.4762 2.3574-18.733 3.2689-24.689 1.9991zm575.64-6.3924c-11.11-3.3037-16.806-7.492-20.523-15.089-2.3936-4.8924-2.6802-6.4555-2.2588-12.323 0.32057-4.4643 1.4094-8.6775 3.2441-12.553 3.198-6.755 13.035-17.721 18.954-21.129 2.2459-1.2934 28.158-12.617 57.584-25.163l53.5-22.811 11 0.0375c8.9989 0.0307 12.052 0.44947 16.782 2.302 16.524 6.4712 23.149 19.383 17.782 34.655-2.619 7.4515-10.06 17.62-16.373 22.377-3.6656 2.7615-21.203 10.747-59.691 27.178l-54.5 23.268-10.5 0.2943c-6.6957 0.18768-12.13-0.19054-15-1.0439zm-405-157.57c-8.7565-2.6803-19.118-10.145-25.096-18.08-5.2182-6.9266-49.445-110.4-50.81-118.88-2.8625-17.774 4.924-36.429 17.405-41.698 12.169-5.1381 31.752 2.6307 42.074 16.691 2.3493 3.2004 12.154 24.747 27.168 59.704l23.492 54.696 0.51336 9.125c1.0177 18.089-5.4403 32.151-17.224 37.504-4.1559 1.8879-12.885 2.3532-17.522 0.93395zm235-2.31c-5.375-1.7866-13.29-10.303-16.064-17.284-2.023-5.0911-2.3766-7.7339-2.4038-17.969l-0.03194-12 20.893-52.5c11.491-28.875 22.016-54.745 23.388-57.489 3.4441-6.8858 12.349-15.27 21.251-20.01 6.6765-3.5544 8.2107-3.9742 14.468-3.9589 5.2038 0.01272 8.0264 0.56435 11 2.1498 11.663 6.2186 17.292 19.378 16.263 38.026-0.47785 8.6647-0.77353 9.5071-22.174 63.174-11.929 29.916-22.998 56.295-24.598 58.62-10.027 14.574-29.368 23.436-41.991 19.24z" fill="#b0b0b0"/>
 <path d="m263.99 872.13c-8.3682-2.7457-14.544-8.8084-18.076-17.745-1.9825-5.0157-2.3311-7.7198-2.3693-18.381l-0.0448-12.5 21.916-54.5c12.054-29.975 23.172-56.354 24.707-58.62 4.1587-6.1378 12.203-12.924 19.688-16.609 5.6256-2.7695 7.7201-3.2663 13.665-3.2411 8.4201 0.0356 13.556 2.3561 18.817 8.5025 5.9786 6.9846 8.2057 14.584 8.1965 27.968l-8e-3 11.5-22.229 55.5c-18.833 47.021-22.88 56.304-26.492 60.761-4.5279 5.5877-12.627 12.108-19.212 15.468-4.3332 2.2106-14.449 3.2444-18.557 1.8965zm343.29-3.9356c-9.9377-3.5413-21.845-13.188-26.772-21.69-3.5687-6.1582-46.204-106.36-47.575-111.81-1.7262-6.8649-0.696-20.768 2.0886-28.185 2.9689-7.9086 10.611-15.793 16.971-17.507 11.136-3.0021 24.095 1.8477 35.426 13.258l7.1992 7.2494 23.847 55.5 23.847 55.5 0.45175 10.203c0.37328 8.4306 0.0834 11.416-1.6685 17.184-5.1549 16.971-19.313 25.472-33.816 20.304zm-198.79-182.72c-46.298-6.0462-93.361-26.849-129.5-57.242-11.508-9.6779-29.315-27.834-37.983-38.727-15.604-19.608-32.056-48.788-40.515-71.857-4.6885-12.786-9.904-33.234-12.161-47.679-2.4996-15.996-2.4996-50.932 0-66.929 2.0962-13.415 7.1957-33.786 11.649-46.536 4.0995-11.736 17.3-38.588 24.58-50 37.477-58.746 97.449-101.2 163.16-115.51 30.898-6.7266 68.644-6.7266 99.542 0 65.71 14.305 125.68 56.763 163.16 115.51 7.2802 11.412 20.481 38.264 24.58 50 4.4535 12.75 9.553 33.121 11.649 46.536 2.5012 16.006 2.4859 50.913-0.0293 66.964-2.2809 14.556-7.4662 34.919-12.132 47.643-9.171 25.01-27.111 55.951-44.272 76.357-9.6779 11.508-27.834 29.315-38.727 37.983-29.566 23.527-70.012 42.877-104.5 49.993-24.394 5.033-55.956 6.4376-78.5 3.4935zm-378.11-45.958c-16.42-3.5718-24.813-12.359-24.846-26.012-0.019167-8.0158 2.8205-15.319 9.2305-23.738 7.1704-9.4181 10.57-11.201 68.227-35.769l54.5-23.223 9.125-0.51455c38.386-2.1646 52.267 28.299 25.124 55.141l-7.2494 7.1691-54.576 23.21c-30.017 12.766-56.966 23.664-59.886 24.217-6.84 1.2972-12.061 1.1693-19.649-0.48132zm802.11-6.6054c-4.6579-0.46706-18.302-5.5761-61-22.841-60.47-24.451-61.943-25.222-70.145-36.716-10.579-14.825-10.987-28.564-1.1413-38.41 7.3688-7.3688 23.41-11.839 36.034-10.042 4.4116 0.62796 21.703 7.1323 58.752 22.099 28.875 11.665 54.686 22.386 57.358 23.824 6.2529 3.3651 16.361 14.295 20.167 21.808 3.8282 7.5553 4.1492 17.534 0.77009 23.934-6.4244 12.168-21.641 18.264-40.795 16.343zm-694-284.9c-5.0674-0.75867-105.92-40.986-114.86-45.813-6.2598-3.3811-16.365-14.313-20.167-21.818-5.4123-10.682-3.6799-23.295 4.1837-30.46 8.6005-7.8364 16.549-10.271 31.708-9.7133l10.133 0.3729 52.5 21.293c28.875 11.711 54.44 22.251 56.81 23.422 11.967 5.9104 24.201 23.838 24.184 35.439-0.0205 13.866-11.739 24.657-29.575 27.235-7.6504 1.1058-7.8086 1.1062-14.919 0.0416zm574.5-6.3688c-10.331-3.0066-17.038-7.9681-20.592-15.231-2.2265-4.5508-2.5774-6.4012-2.2348-11.783 0.60541-9.5079 5.8783-19.541 14.578-27.739l6.7713-6.3804 54.922-23.395c61.039-26.001 62.619-26.5 76.435-24.141 18.551 3.1677 29.477 14.796 27.751 29.536-1.3442 11.482-13.11 27.941-23.717 33.179-2.4272 1.1986-27.813 12.172-56.413 24.385l-52 22.206-10.5 0.336c-6.6744 0.21357-12.14-0.14118-15-0.97369zm-405.5-158.04c-7.6269-2.4184-13.035-5.9203-20.063-12.992l-7.0627-7.1063-23.847-55.5-23.847-55.5-0.45175-10.203c-0.37115-8.3824-0.0801-11.427 1.631-17.06 2.4841-8.1784 6.6038-14.192 12.31-17.968 3.755-2.4849 5.0649-2.7693 12.758-2.7693 11.513 0 17.711 2.9595 28.103 13.42l7.5303 7.5798 23.97 56 23.97 56-0.0531 11.5c-0.0674 14.615-2.2697 21.026-9.8378 28.64-7.0932 7.1365-15.272 9.0769-25.109 5.9575zm237.49-1.4727c-8.3026-2.7227-14.59-8.962-18.186-18.046-1.8309-4.6255-2.2169-7.6309-2.258-17.579l-0.04958-12 22.258-55.5c23.638-58.94 24.683-61.03 34.362-68.721 6.0191-4.7828 15.041-9.2022 20.241-9.9149 2.7448-0.37621 6.424 0.01299 10.028 1.0608 13.966 4.0599 21.352 18.068 20.341 38.575l-0.46856 9.5-21.189 52.972c-11.654 29.135-22.379 55.158-23.833 57.829-3.5276 6.4813-12.718 14.824-20.611 18.71-6.7471 3.3216-15.824 4.6914-20.635 3.1138z" fill="#8f8f8f"/>
 <path d="m262.63 871.59c-2.1299-0.79272-5.5049-2.7547-7.5-4.3599-8.4362-6.7875-11.625-15.491-11.626-31.733l-1e-3 -11 21.292-53.372c11.71-29.354 22.237-55.229 23.393-57.5 3.2729-6.4312 13.659-15.971 21.481-19.73 5.6508-2.7157 8.0477-3.2946 13.835-3.3416 5.9362-0.0482 7.7282 0.3712 11.792 2.76 5.5847 3.2827 9.7421 8.6208 12.88 16.538 1.858 4.6878 2.2382 7.5945 2.2423 17.145l5e-3 11.5-22.42 56-22.42 56-8.0396 8c-4.9185 4.8942-10.249 9.1024-13.731 10.84-6.8949 3.44-15.526 4.3582-21.181 2.2533zm346.21-2.9822c-7.0319-1.8939-15.337-7.3682-22.19-14.627l-6.1524-6.5164-24-55.984-24-55.984 0.0712-11.5c0.0906-14.628 2.2872-20.989 9.8656-28.567 5.9162-5.9162 12.306-8.1123 20.349-6.9933 10.048 1.3981 23.515 10.312 30.126 19.94 1.5561 2.2662 13.35 28.645 26.209 58.62l23.38 54.5-0.0496 12c-0.042 10.155-0.40998 12.914-2.3933 17.941-3.1903 8.0869-10.038 14.882-17.116 16.984-6.2134 1.8452-7.8574 1.8668-14.099 0.18577zm-198.84-183.04c-72.416-9.2265-137.93-49.879-180.5-112-32.013-46.717-47.431-103.73-42.477-157.08 3.7569-40.452 17.176-78.583 39.777-113.03 10.303-15.704 18.176-25.492 31.641-39.334 14.396-14.799 26.955-25.284 43.326-36.169 58.47-38.876 124.65-51.116 191.69-35.449 34.464 8.0546 73.851 28.127 102.55 52.26 11.508 9.6779 29.315 27.834 37.983 38.727 68.428 85.99 72.971 200.4 11.517 290.08-25.707 37.515-61.197 68.428-100.88 87.87-24.138 11.826-47.048 19.177-72.122 23.142-13.701 2.1662-48.875 2.72-62.5 0.9841zm-376.5-45.581c-6.5811-0.99833-14.787-4.2105-19.037-7.4523-9.4859-7.2352-11.708-20.01-5.7096-32.827 3.5219-7.5257 12.318-17.5 18.746-21.258 5.7826-3.3803 106.75-46.238 112.12-47.588 6.5565-1.6509 20.634-0.55907 27.884 2.1628 7.9086 2.9689 15.793 10.611 17.507 16.971 3.4575 12.825-5.332 31.356-19.387 40.872-6.5535 4.4374-110.05 48.139-116.52 49.198-6.2652 1.0263-8.3918 1.0156-15.604-0.07842zm793.5-7.8733c-7.363-2.4755-106.21-42.703-110.17-44.834-7.1173-3.8336-15.459-12.772-19.398-20.785-6.1536-12.517-5.6002-21.619 1.8273-30.057 7.4371-8.449 18.233-12.021 33.842-11.199l9.399 0.49534 53.5 21.702c29.425 11.936 55.345 22.774 57.6 24.085 5.7402 3.336 14.266 12.865 18.353 20.513 2.981 5.5781 3.4561 7.4181 3.4758 13.461 0.0173 5.3017-0.50702 8.0016-2.1612 11.128-2.8895 5.4617-10.247 11.82-16.073 13.889-5.2727 1.8729-26.101 2.9775-30.195 1.6014zm-695.5-286.01c-8.8024-3.205-104.34-41.975-107.64-43.68-8.2156-4.2484-19.285-17.737-22.419-27.318-3.8522-11.777 1.0816-23.278 12.861-29.979 6.8389-3.8908 15.533-5.4967 26.416-4.8792 8.6888 0.49305 9.3489 0.7281 62.282 22.176 29.425 11.923 55.3 22.733 57.5 24.022 9.8826 5.7911 20.518 20.823 22.074 31.198 1.9642 13.098-7.3414 24.792-23.074 28.994-7.3464 1.9624-21.907 1.685-28-0.53335zm581.75-4.6524c-7.7179-2.0782-12.334-4.7364-16.983-9.7799-4.9014-5.3174-6.712-10.991-5.9331-18.592 1.0543-10.289 10.058-24.193 20.045-30.955 2.2662-1.5344 28.17-13.034 57.564-25.555 58.239-24.808 60.601-25.573 73.03-23.645 15.975 2.4786 25.493 8.9895 28.559 19.536 2.0451 7.035 1.3258 13.214-2.4736 21.248-3.2278 6.8251-12.559 17.328-18.459 20.776-5.0738 2.9652-105.8 45.92-111.19 47.416-5.3665 1.49-17.816 1.2587-24.158-0.44888zm-406.84-158.28c-7.2626-2.5106-14.544-7.4701-20.635-14.054-5.0169-5.4231-6.4631-8.4691-29.278-61.663l-24-55.959 0.0496-12c0.0411-9.9484 0.42714-12.954 2.258-17.579 6.7221-16.983 22.26-22.52 39.157-13.953 8.1994 4.1571 17.95 13.462 21.26 20.287 1.3988 2.8847 12.551 28.628 24.784 57.206 21.683 50.66 22.252 52.163 22.72 60 1.6358 27.436-15.267 44.991-36.314 37.715zm238.58-1.0512c-14.019-4.5966-22.035-19.997-20.75-39.869 0.46899-7.2535 1.9477-11.387 22.809-63.756l22.308-56 7.5697-7.5336c11.953-11.896 22.732-16.446 33.08-13.964 14.463 3.4696 22.898 18.696 21.794 39.338-0.42072 7.8669-1.2 10.075-21.763 61.659-11.73 29.425-22.227 55.3-23.327 57.5-3.0791 6.1576-13.595 15.863-21.034 19.414-6.838 3.2635-16.129 4.7058-20.687 3.2113z" fill="#6e6e6e"/>
 <path d="m262.97 871.46c-13.176-4.0618-21.074-20.004-19.736-39.835 0.43314-6.4157 2.6967-12.682 22.624-62.629 24.349-61.031 24.987-62.262 36.407-70.32 19.902-14.043 37.728-9.7486 45.817 11.038 1.8189 4.6736 2.2664 7.8916 2.3339 16.782l0.0836 11-21.217 53.224c-11.669 29.273-22.173 55.1-23.343 57.392-4.5736 8.965-18.452 20.728-27.76 23.53-5.5498 1.6702-9.3502 1.6248-15.211-0.18205zm347.25-2.5049c-8.7735-1.7727-22.022-11.358-28.064-20.305-1.5429-2.2846-13.044-28.078-25.557-57.318-25.111-58.678-25.81-60.846-23.878-74.087 2.5238-17.299 10.958-27.409 24.095-28.885 12.749-1.432 32.567 11.221 38.931 24.856 1.0987 2.354 12.002 27.644 24.23 56.2 21.232 49.583 22.257 52.27 22.766 59.702 0.67532 9.8528-1.0234 18.684-5.0557 26.282-5.7083 10.757-16.052 15.861-27.468 13.555zm-196.72-183.13c-34.23-3.4464-71.12-16.004-101.93-34.699-18.785-11.398-33.716-23.192-50.108-39.585-40.546-40.546-64.642-87.848-73.121-143.54-2.4019-15.777-2.4019-47.223 0-63 8.129-53.395 31.665-100.94 69.287-139.96 101.69-105.47 258.5-105.33 360.07 0.32083 61.791 64.276 85.254 152.42 62.295 234.03-12.014 42.706-33.835 79.533-66.449 112.15-27.638 27.638-58.148 47.405-93.041 60.279-34.669 12.792-71.356 17.593-107 14.005zm-378.51-45.814c-16.157-2.0408-26.327-9.626-29.115-21.714-2.3633-10.248 3.8828-24.427 15.38-34.912 5.2368-4.776 9.1482-6.6291 58.926-27.917 29.324-12.541 55.552-23.402 58.284-24.134 10.087-2.7056 25.663-0.79017 34.185 4.204 9.3712 5.4919 14.342 15.243 12.871 25.249-1.5364 10.451-11.602 25.248-20.862 30.671-6.2644 3.6682-109.27 47.397-112.96 47.955-7.3304 1.1084-11.501 1.2581-16.712 0.59982zm790.01-8.9256c-9.2511-3.0398-105.23-42.107-109.5-44.569-6.379-3.6814-15.213-13.678-18.731-21.196-7.6051-16.252-1.7142-30.836 15.152-37.512 4.6255-1.8309 7.6309-2.2169 17.579-2.258l12-0.0496 54 21.863c29.7 12.025 55.35 22.551 57 23.392s5.9781 4.552 9.6179 8.2462c18.048 18.317 17.911 38.026-0.34079 49.324-7.4125 4.5881-26.789 6.0422-36.777 2.76zm-693-284.96c-14.358-4.9449-107.87-43.451-111.31-45.835-5.614-3.8905-13.008-12.53-16.813-19.644-2.8011-5.2377-3.2918-7.1846-3.3319-13.219-0.040934-6.1636 0.3424-7.7123 2.9702-12 4.1386-6.7529 13.482-12.869 21.897-14.335 7.9578-1.3858 17.979-1.3844 22.977 3e-3 6.1532 1.7085 107.65 42.822 112.21 45.451 6.1147 3.529 15.297 14.013 18.766 21.426 7.4424 15.904 1.3241 30.776-15.287 37.159-8.0525 3.0943-24.501 3.6038-32.079 0.99369zm581.55-4.6643c-15.76-3.9781-24.809-15.178-23.205-28.722 1.294-10.926 12.123-26.433 22.287-31.914 5.3759-2.8992 105.08-45.547 109.87-46.996 1.65-0.49915 7.0983-0.91544 12.107-0.92511 25.004-0.0482 39.842 14.087 34.927 33.272-0.88467 3.4532-2.8001 8.3146-4.2564 10.803-3.5235 6.0208-11.791 14.665-16.764 17.528-2.2077 1.271-28.083 12.546-57.5 25.056l-53.486 22.745-9.014 0.32793c-5.7577 0.20947-11.164-0.21463-14.964-1.174zm-407.58-158.67c-10.944-3.8311-22.375-13.688-26.752-23.066-1.0822-2.319-12.034-27.616-24.337-56.216l-22.369-52-8e-3 -11c-6e-3 -7.9401 0.4958-12.53 1.8024-16.5 5.9637-18.12 21.222-24.58 38.69-16.379 7.4644 3.5043 16.976 11.76 20.465 17.762 4.0698 7.0019 46.601 106.71 48.24 113.09 2.5315 9.8582 0.43216 25.329-4.549 33.522-6.9275 11.395-18.249 15.31-31.182 10.783zm238.03-1.2706c-8.9252-2.868-15.275-10.793-18.467-23.047-1.7934-6.8853-1.9838-17.287-0.42041-22.965 2.3448-8.5161 43.334-110.22 45.946-114 6.4305-9.313 18.626-18.265 27.92-20.495 10.233-2.4549 21.316 2.4483 27.259 12.059 3.8418 6.2139 6.0784 17.454 5.4592 27.435-0.47002 7.5773-1.6398 10.879-22.143 62.5-14.175 35.688-22.918 56.367-25.332 59.91-9.4051 13.806-28.157 22.479-40.221 18.602z" fill="#4f4f4f"/>
 <path d="m262.97 871.52c-9.9019-3.1807-16.787-12.552-19.059-25.94-2.5154-14.824-2.324-15.489 22.045-76.534 23.661-59.272 24.776-61.499 34.583-69.074 11.089-8.5659 23.504-11.504 32.566-7.7082 8.3666 3.5047 14.77 13.37 16.967 26.14 2.3155 13.46 1.9591 14.678-21.596 73.841-11.88 29.839-22.691 56.121-24.023 58.405-3.2302 5.5371-13.123 14.36-20.524 18.305-7.1258 3.798-14.363 4.6838-20.959 2.5652zm347.12-2.6231c-9.1602-1.7658-24.426-13.533-29.279-22.57-1.4265-2.6562-12.585-28.181-24.797-56.722-24.259-56.698-25.076-59.223-23.285-71.98 2.1239-15.136 9.0919-25.066 19.767-28.169 8.9088-2.5898 18.702 0.11168 29.718 8.1981 9.5769 7.0301 11.059 9.822 35.582 67.038 12.708 29.649 23.566 55.909 24.13 58.356 3.1711 13.76-0.86353 30.821-9.279 39.236-5.9346 5.9346-13.925 8.277-22.557 6.613zm-194.59-182.88c-49.123-5.2563-95.009-24.486-134.5-56.366-9.6428-7.7844-29.866-28.007-37.65-37.65-30.327-37.568-49.164-81.052-55.447-128-1.6361-12.225-1.6361-42.775 0-55 5.4181-40.484 19.048-76.021 42.191-110 42.988-63.117 112-104.8 185.33-111.94 87.65-8.5292 177.15 35.128 229.48 111.94 23.061 33.847 36.819 69.724 42.182 110 1.6291 12.233 1.6409 41.659 0.022 54.5-5.8721 46.574-24.74 90.27-55.485 128.5-7.7163 9.5947-27.936 29.826-37.627 37.65-35.563 28.709-75.956 47.003-120.03 54.362-14.108 2.3557-45.217 3.4218-58.469 2.0037zm-386.77-47.104c-5.3769-1.2668-11.701-4.6252-15.572-8.2698-12.135-11.425-9.6409-29.438 6.2515-45.146l7.0861-7.0037 54.5-23.206c29.975-12.763 56.959-23.732 59.964-24.375 9.3879-2.0084 24.428 0.30734 32.036 4.933 9.891 6.013 14.346 15.651 12.093 26.158-1.8156 8.4659-6.1118 16.014-13.132 23.071l-6.5395 6.574-53.46 22.832c-29.403 12.557-55.445 23.437-57.869 24.176-4.8823 1.4888-19.498 1.6366-25.357 0.25638zm795.27-8.2788c-12.715-4.5474-106.55-42.812-109.59-44.687-4.3871-2.711-12.547-11.598-15.884-17.299-14.071-24.042 2.8197-45.246 34.598-43.434 8.1608 0.46539 9.7601 1.0392 63.372 22.737 32.494 13.151 56.841 23.572 59.5 25.467 9.1251 6.5056 17.983 19.819 19.492 29.295 1.4269 8.9608-3.9018 19.364-12.794 24.977-8.6992 5.4916-27.561 6.9259-38.698 2.9427zm-690.5-284c-12.449-4.1722-109.6-44.291-113.12-46.715-6.0529-4.1645-12.972-12.422-16.674-19.899-6.6285-13.389-3.2051-25.618 9.4939-33.916 7.2183-4.7164 16.058-6.591 27.716-5.8777 7.095 0.43406 11.112 1.8907 62.582 22.69 30.25 12.225 56.675 23.372 58.723 24.772 13.363 9.1372 22.188 26.131 19.734 38-1.91 9.2367-8.0187 15.673-18.49 19.48-7.4357 2.704-23.872 3.5076-29.967 1.4651zm584.5-4.3243c-6.4983-1.0866-15.108-4.7098-18.896-7.9525-11.021-9.4338-11.627-23.691-1.6453-38.729 7.9163-11.926 8.8606-12.452 67.041-37.302 29.15-12.45 55.025-23.276 57.5-24.056 3.1127-0.98163 7.7387-1.2991 15.005-1.0298 8.8086 0.3265 11.474 0.83184 16.5 3.1288 11.26 5.1457 16.772 12.762 16.706 23.086-0.0668 10.564-5.7008 21.364-15.876 30.433-4.9494 4.4114-10.408 6.9678-59.642 27.934-29.807 12.693-56.219 23.54-58.694 24.103-4.4415 1.012-13.134 1.1974-18 0.38387zm-408.25-158.39c-10.568-2.4914-24.898-13.395-29.521-22.461-1.109-2.1752-12.291-27.805-24.849-56.955l-22.833-53-0.0258-11c-0.03898-16.603 4.6416-27.575 14.147-33.162 4.1467-2.4374 5.8884-2.8376 12.349-2.8376 6.5389 0 8.4324 0.44724 14.5 3.4249 7.8561 3.8553 17.989 13.213 21.217 19.595 1.1075 2.1893 12.012 27.332 24.232 55.873 24.511 57.246 25.19 59.369 23.186 72.455-2.2535 14.717-9.243 24.594-19.588 27.681-5.4597 1.6288-7.3106 1.6848-12.814 0.38732zm236.33-2.017c-13.437-2.5898-21.601-16.368-21.569-36.399l0.0161-10 21.806-54.5c11.993-29.975 22.892-56.369 24.219-58.653 3.402-5.856 13.067-14.241 21.075-18.285 5.5306-2.7927 7.9476-3.4375 12.884-3.4375 10.394 0 19.172 5.8951 23.563 15.824 2.9138 6.5891 4.5147 20.451 3.2288 27.957-0.68845 4.0192-9.1378 26.549-22.78 60.741-23.24 58.25-24.397 60.547-34.291 68.079-9.603 7.3112-19.46 10.348-28.152 8.6721z" fill="#2f2f2f"/>
 <path d="m265 872.12c-8.8643-2.9013-14.754-8.0484-18.075-15.794-2.488-5.8042-4.3128-19.37-3.5167-26.144 0.46028-3.9163 7.1196-21.895 21.73-58.664 11.586-29.16 22.234-55.186 23.661-57.837 3.4059-6.3267 13.556-15.729 20.813-19.279 6.7168-3.2862 16.119-4.3051 21.955-2.3792 12.577 4.1508 21.523 24.223 18.598 41.728-1.3796 8.2557-42.779 112.38-47.288 118.93-3.6537 5.3104-13.351 13.514-19.892 16.829-5.2473 2.659-13.971 3.926-17.985 2.6122zm340.48-4.7043c-5.5488-1.9708-17.243-11.082-21.603-16.832-5.0684-6.6836-49.541-110.73-51.028-119.38-1.9917-11.589 1.737-26.868 8.5112-34.877 11.09-13.111 35.881-7.9319 49.848 10.414 2.5331 3.3272 11.253 22.473 27.471 60.316l23.76 55.442 5e-3 10c8e-3 16.508-4.2975 26.154-14.843 33.25-4.2926 2.8886-5.5679 3.2412-11.467 3.171-3.6504-0.0434-8.4443-0.72086-10.653-1.5054zm-184.48-181.04c-57.762-5.4154-107.59-27.42-151-66.69-36.9-33.377-64.632-79.317-76.46-126.66-20.42-81.736 5.2128-169.18 67.875-231.56 43.333-43.133 97.589-69.01 156.09-74.443 98.081-9.1091 198.41 49.009 244.76 141.78 18.062 36.15 25.98 69.248 25.885 108.19-0.0885 36.095-7.8447 69.859-23.546 102.5-37.438 77.828-111.85 133.24-194.73 145-11.198 1.5895-40.077 2.6947-48.871 1.8703zm-392.98-47.922c-10.498-2.9239-18.54-9.4235-21.043-17.006-2.0944-6.346-0.79304-16.14 3.1233-23.505 4.0781-7.6698 12.72-16.788 18.898-19.941 2.4736-1.2623 27.673-12.171 55.998-24.242 56.615-24.126 58.699-24.788 71.86-22.831 18.51 2.753 28.587 12.194 28.451 26.655-0.0986 10.483-7.6625 23.749-17.995 31.56-3.212 2.4282-22.972 11.4-59.316 26.931l-54.5 23.29-10 0.30673c-6.7598 0.20735-11.774-0.18743-15.476-1.2184zm797.98-7.347c-3.025-0.98391-28.675-11.136-57-22.56-54.959-22.166-58.226-23.828-65.888-33.521-6.2755-7.9391-8.5353-13.518-8.9211-22.023-0.29037-6.4014 0.0114-8.1591 2.0605-12 4.7446-8.8934 16.19-14.815 30.428-15.741 4.9126-0.31964 10.092-0.0505 12.968 0.67377 4.6769 1.1777 105.84 41.715 111.83 44.813 7.8194 4.0422 17.725 14.966 21.741 23.975 2.5579 5.738 2.8169 15.092 0.56361 20.352-2.2581 5.2716-7.4692 10.736-12.829 13.452-8.948 4.5343-25.244 5.7368-34.952 2.5792zm-693-284.94c-7.1843-2.4283-103.99-41.585-108.24-43.781-8.0639-4.1688-17.917-14.973-21.978-24.1-8.7552-19.676 7.8832-38.272 34.213-38.238 3.025 4e-3 7.4934 0.46652 9.9297 1.028 4.6881 1.0805 104.86 41.25 112.18 44.988 6.87 3.5048 15.419 12.802 19.389 21.086 10.542 21.997-2.5355 39.357-30.501 40.491-7.3916 0.29965-10.721-0.0275-15-1.4739zm582.25-4.6768c-25.623-5.5662-32.213-26.473-15.382-48.8 7.0005-9.2864 10.577-11.167 68.131-35.83l54.5-23.354 12 0.0496c14.108 0.0583 20.42 1.9872 27.821 8.5021 12.051 10.608 9.8131 29.536-5.3239 45.025-3.0264 3.0967-7.5264 6.6631-10 7.9254s-27.673 12.168-55.998 24.235c-58.744 25.026-60.534 25.552-75.749 22.247zm-408.25-158.42c-8.3936-2.5625-19.118-10.639-24.283-18.289-1.9596-2.902-13.99-29.693-26.735-59.535-22.177-51.93-23.194-54.591-23.68-62-1.4254-21.713 10.293-39.241 26.235-39.241 9.8265 0 25.176 8.6832 32.365 18.309 5.4856 7.345 49.745 110.81 51.16 119.59 2.6494 16.452-4.3633 34.676-15.399 40.018-4.4578 2.158-14.438 2.7384-19.663 1.1436zm234.46-2.8907c-5.8652-2.7407-11.97-10.172-14.377-17.502-2.7349-8.3282-3.5899-18.08-2.1701-24.748 1.9541-9.1776 43.726-112.8 47.63-118.16 4.1302-5.6644 12.282-12.248 20.013-16.162 15.374-7.7848 31.905 0.19588 37.069 17.896 1.1359 3.8937 1.7612 9.5105 1.781 16l0.0306 10-21.792 54.5c-11.985 29.975-22.863 56.345-24.173 58.6-3.3528 5.7719-13.325 14.691-20.176 18.045-7.5485 3.6957-17.794 4.353-23.836 1.5294z"/>
</svg>
