<svg width="154" height="51" viewBox="0 0 154 51" fill="none" xmlns="http://www.w3.org/2000/svg">
<rect width="154" height="51" rx="5" fill="#FFB400"/>
<path d="M33.5909 31V19.3636H35.3466V24.4205H41.1477V19.3636H42.9091V31H41.1477V25.9261H35.3466V31H33.5909ZM47.2216 19.3636V31H45.4659V19.3636H47.2216ZM49.7784 31V19.3636H53.9261C54.8277 19.3636 55.5758 19.5189 56.1705 19.8295C56.7689 20.1402 57.2159 20.5701 57.5114 21.1193C57.8068 21.6648 57.9545 22.2955 57.9545 23.0114C57.9545 23.7235 57.8049 24.3504 57.5057 24.892C57.2102 25.4299 56.7633 25.8485 56.1648 26.1477C55.5701 26.447 54.822 26.5966 53.9205 26.5966H50.7784V25.0852H53.7614C54.3295 25.0852 54.7917 25.0038 55.1477 24.8409C55.5076 24.678 55.7708 24.4413 55.9375 24.1307C56.1042 23.8201 56.1875 23.447 56.1875 23.0114C56.1875 22.572 56.1023 22.1913 55.9318 21.8693C55.7652 21.5473 55.5019 21.3011 55.142 21.1307C54.786 20.9564 54.3182 20.8693 53.7386 20.8693H51.5341V31H49.7784ZM55.5227 25.75L58.3977 31H56.3977L53.5795 25.75H55.5227ZM60.0909 31V19.3636H67.3864V20.875H61.8466V24.4205H67.0057V25.9261H61.8466V29.4886H67.4545V31H60.0909ZM73.9659 19.3636H76.0966L79.8011 28.4091H79.9375L83.642 19.3636H85.7727V31H84.1023V22.5795H83.9943L80.5625 30.983H79.1761L75.7443 22.5739H75.6364V31H73.9659V19.3636ZM88.3253 31V19.3636H95.6207V20.875H90.081V24.4205H95.2401V25.9261H90.081V29.4886H95.6889V31H88.3253Z" fill="#2B2B2B"/>
<g clip-path="url(#clip0_202_15)">
<path d="M116.782 24.3331L113.206 20.7571L114.148 19.8145L119.334 24.9998L114.148 30.1851L113.206 29.2425L116.782 25.6665H108.667V24.3331H116.782Z" fill="#2B2B2B"/>
</g>
<defs>
<clipPath id="clip0_202_15">
<rect width="16" height="16" fill="white" transform="translate(106 17)"/>
</clipPath>
</defs>
</svg>
